<?xml version="1.0" standalone="no"?>
<!DOCTYPE svg PUBLIC "-//W3C//DTD SVG 20010904//EN"
 "http://www.w3.org/TR/2001/REC-SVG-20010904/DTD/svg10.dtd">
<svg version="1.0" xmlns="http://www.w3.org/2000/svg"
 width="1024.000000pt" height="1024.000000pt" viewBox="0 0 1024.000000 1024.000000"
 preserveAspectRatio="xMidYMid meet">

<g transform="translate(0.000000,1024.000000) scale(0.100000,-0.100000)"
fill="#000000" stroke="none">
<path d="M5440 7718 c-25 -5 -70 -13 -100 -16 l-55 -7 115 -18 c63 -10 147
-24 185 -32 39 -8 104 -16 145 -19 77 -5 210 -41 210 -57 0 -5 -7 -9 -16 -9
-11 0 -14 -6 -9 -20 3 -11 7 -361 8 -777 l2 -758 69 -3 69 -3 -7 -61 c-3 -33
-6 -117 -6 -185 l0 -124 -37 3 -38 3 -7 115 c-9 142 -20 211 -33 210 -6 0 -10
-61 -9 -165 0 -151 -1 -165 -18 -171 -10 -3 -22 -3 -27 0 -11 7 -19 401 -26
1266 l-6 675 -77 22 c-186 53 -209 55 -674 51 l-433 -4 -145 -38 c-80 -21
-146 -39 -148 -41 -1 -1 -9 -143 -17 -316 -8 -173 -17 -347 -21 -386 -6 -73
-6 -73 -36 -73 l-29 0 7 358 7 357 -29 5 c-74 10 -113 1 -259 -60 -82 -34
-203 -88 -268 -121 -64 -32 -120 -59 -123 -59 -34 0 152 120 291 187 50 24 83
42 75 40 -8 -2 -40 -10 -70 -17 -30 -7 -65 -16 -77 -21 -14 -5 -23 -4 -25 3
-5 13 -189 -80 -324 -164 -245 -152 -541 -424 -685 -628 -35 -50 -79 -111 -97
-137 -18 -25 -35 -57 -39 -72 -6 -27 -58 -108 -79 -126 -14 -11 -57 -92 -60
-112 -1 -6 -20 -48 -43 -93 -35 -70 -157 -427 -191 -558 -27 -106 -41 -222
-50 -422 -14 -307 6 -490 79 -741 52 -176 81 -251 148 -381 151 -297 398 -637
621 -856 93 -91 259 -224 380 -305 134 -89 359 -207 395 -207 14 0 28 -7 31
-15 3 -9 11 -15 18 -13 7 1 24 -4 38 -12 25 -14 30 -15 61 -18 8 -1 24 -10 35
-19 10 -10 28 -20 39 -21 11 -2 23 -8 26 -14 3 -5 9 -9 13 -8 17 6 67 -11 61
-20 -3 -5 1 -10 10 -10 9 0 14 4 11 9 -9 14 32 1 45 -15 6 -8 15 -14 19 -14 4
0 10 53 14 117 4 65 9 119 11 122 3 2 11 -1 18 -7 10 -9 17 -8 25 0 9 9 12 5
13 -17 l1 -30 9 30 c7 29 8 28 7 -10 0 -22 0 -84 1 -137 1 -114 7 -120 101
-122 30 -1 57 -3 60 -6 3 -3 55 -4 117 -2 l111 4 6 46 c3 26 8 82 12 125 4 60
9 77 19 73 8 -3 16 0 18 7 10 27 19 -7 28 -104 6 -57 14 -120 18 -139 l8 -35
12 41 c13 49 23 54 101 54 32 0 70 4 84 10 24 9 26 15 26 67 0 77 8 103 31
103 11 0 18 -3 17 -7 -2 -11 11 -99 24 -157 6 -30 13 -43 18 -36 5 9 22 11 49
7 l41 -5 1 66 c1 92 13 164 23 137 4 -11 12 -29 16 -40 5 -11 18 -65 30 -120
11 -55 25 -104 30 -109 5 -5 15 7 24 28 27 64 92 67 98 3 3 -31 4 -32 48 -29
25 1 74 12 110 23 93 29 209 48 213 35 2 -6 6 66 9 159 2 102 9 178 16 190 11
19 11 19 12 1 0 -18 1 -18 18 2 19 21 19 18 25 -142 7 -181 13 -211 31 -174 8
15 24 25 47 28 19 4 40 10 47 14 7 4 36 10 65 12 29 2 59 5 67 7 30 6 90 40
90 50 0 6 3 8 6 5 3 -3 24 12 47 34 23 21 58 48 77 59 19 10 42 23 50 28 60
38 166 67 173 48 4 -13 51 12 162 86 250 165 494 410 707 707 214 299 346 574
437 910 22 80 44 170 50 200 21 113 30 288 24 465 l-6 182 33 79 c18 43 45
105 61 136 16 32 29 62 29 68 0 6 -38 10 -100 10 l-100 0 -6 28 c-22 96 -40
159 -83 280 -54 152 -81 213 -91 207 -10 -6 -31 45 -24 57 4 6 2 8 -4 5 -6 -4
-23 17 -41 48 -33 58 -37 70 -21 60 5 -3 -9 27 -32 67 -158 283 -376 527 -693
779 -201 160 -518 332 -795 433 -125 45 -348 101 -481 120 -118 18 -153 18
-219 4z m-278 -378 l-3 -150 59 0 59 0 7 -197 c4 -109 13 -243 21 -298 11 -74
15 -231 17 -597 3 -452 2 -495 -13 -482 -11 10 -44 14 -126 14 l-111 0 -6 658
c-4 361 -8 713 -9 782 -2 121 -1 125 19 128 28 4 34 34 34 178 l0 114 28 0 27
0 -3 -150z m1048 83 c8 -7 23 -490 17 -508 -4 -9 -19 -15 -35 -15 -27 0 -30 3
-36 46 -8 63 -8 479 1 487 6 7 42 0 53 -10z m290 -84 c34 -20 34 -20 6 -14
-34 7 -79 35 -56 35 8 -1 31 -10 50 -21z m7 -34 c19 -13 22 -28 28 -137 9
-181 13 -838 5 -843 -32 -20 -43 78 -59 500 -6 154 -14 315 -17 357 -6 75 1
138 15 138 3 0 16 -7 28 -15z m-2622 -284 c111 -49 157 -99 195 -211 18 -54
19 -69 10 -123 -31 -174 -124 -268 -294 -297 -78 -14 -144 -3 -232 39 -183 86
-241 340 -111 487 106 121 293 167 432 105z m-710 -82 c-22 -22 -71 -68 -110
-102 -61 -54 -66 -57 -40 -23 28 36 171 166 184 166 3 0 -13 -18 -34 -41z
m3978 -77 c56 -59 74 -87 40 -61 -34 25 -173 164 -173 172 0 13 69 -44 133
-111z m-2143 -240 c0 -405 -13 -992 -22 -992 -4 0 -9 60 -9 133 -1 72 -5 146
-9 162 l-8 30 -1 -27 c-1 -26 -4 -28 -41 -28 -31 0 -40 4 -41 18 0 9 -6 1 -12
-18 l-11 -35 -7 45 c-3 26 -7 -29 -7 -127 -1 -95 -6 -173 -11 -173 -13 0 -24
576 -17 925 4 171 6 313 6 318 0 4 43 7 95 7 l95 0 0 -238z m1380 101 c0 -54
7 -192 15 -308 8 -115 15 -286 16 -380 0 -93 4 -226 7 -294 l7 -123 -50 6
c-27 3 -96 6 -152 6 l-103 0 0 473 c0 261 3 477 7 480 3 4 5 59 4 122 l-2 115
125 0 126 0 0 -97z m460 40 c35 -70 44 -80 123 -119 38 -20 67 -40 64 -47 -2
-7 -34 -19 -71 -29 -80 -19 -100 -35 -122 -97 -25 -66 -31 -69 -49 -25 -37 85
-40 89 -102 114 -34 14 -65 28 -68 32 -4 3 18 25 49 47 69 51 93 76 100 107
13 49 27 75 39 72 6 -2 23 -27 37 -55z m-2367 -595 c-2 -271 -6 -504 -9 -516
-4 -20 -7 -22 -20 -12 -9 8 -31 11 -63 7 -27 -3 -52 -3 -55 0 -12 12 -56 9
-60 -4 -3 -7 -11 -13 -17 -13 -9 0 -10 29 -6 113 4 61 7 136 7 165 l0 52 100
0 c67 0 100 4 100 11 0 8 -29 10 -100 6 l-99 -6 1 65 1 64 61 1 c34 0 79 4
101 9 27 6 8 7 -61 3 l-102 -5 -1 243 c-1 134 -4 259 -7 277 l-6 32 119 0 120
0 -4 -492z m1291 110 c3 -161 8 -376 11 -478 5 -209 -2 -219 -14 -19 -6 107
-8 118 -10 57 l-1 -78 -100 0 -100 0 0 -50 c0 -43 3 -50 19 -50 11 0 22 -6 25
-12 5 -10 7 -10 12 0 6 14 44 17 44 3 0 -5 9 -11 20 -14 18 -5 18 -7 5 -34
l-15 -30 -82 4 c-46 2 -98 6 -115 9 l-33 5 0 134 c0 77 -4 135 -9 135 -6 0 -9
-60 -9 -141 0 -91 -4 -145 -11 -152 -8 -8 -11 87 -11 360 0 204 -3 378 -6 387
-5 12 5 16 53 18 l58 3 3 118 3 117 128 0 128 0 7 -292z m951 252 c7 -12 -22
-12 -50 0 -17 7 -15 9 12 9 17 1 35 -3 38 -9z m-1980 -517 c-4 -208 -8 -383
-10 -389 -2 -7 -18 -11 -35 -10 l-31 1 1 380 c0 288 3 381 13 387 6 4 25 8 40
8 l28 0 -6 -377z m-88 305 c-4 -35 -7 -182 -8 -328 -2 -297 -7 -380 -20 -380
-5 0 -10 17 -11 38 l-1 37 -4 -37 c-3 -28 -9 -38 -22 -38 -16 0 -19 13 -24
107 -4 58 -7 231 -7 385 l0 278 51 0 52 0 -6 -62z m-1455 -30 c26 -11 63 -38
82 -59 42 -46 81 -118 69 -129 -4 -5 -36 -10 -70 -12 -59 -3 -64 -1 -96 30
-86 84 -204 65 -247 -39 -12 -28 -14 -29 -86 -29 -41 0 -74 1 -74 3 0 20 37
119 53 142 75 110 234 150 369 93z m3981 -47 l367 -1 0 -25 c0 -23 -4 -25 -42
-25 -24 0 -61 -3 -83 -7 -31 -5 -35 -8 -20 -14 14 -5 8 -8 -22 -8 -28 -1 -43
3 -44 12 0 7 -2 8 -5 1 -3 -8 -21 -8 -60 -1 -35 6 -176 5 -392 -1 -185 -6
-338 -9 -340 -8 -1 2 -5 20 -9 39 l-5 36 98 4 c55 1 119 2 144 1 25 -1 210 -3
413 -3z m-3139 -41 l99 0 -7 -122 c-3 -68 -9 -199 -13 -293 -4 -99 -10 -157
-14 -140 -5 22 -7 24 -8 8 -1 -28 -39 -33 -323 -36 -254 -2 -228 -20 -223 153
l4 115 128 6 c70 4 134 7 141 8 9 1 12 40 12 157 l0 157 53 -7 c28 -3 97 -6
151 -6z m-956 -85 c4 -44 10 -50 65 -65 29 -9 37 -16 37 -34 0 -13 -9 -34 -19
-47 l-19 -24 -54 27 c-95 48 -120 85 -94 137 33 63 79 66 84 6z m3812 -52 c45
-5 61 -12 88 -40 43 -46 42 -76 -5 -119 -40 -37 -39 -41 22 -96 l30 -27 -39
-1 c-35 0 -45 6 -80 45 -32 34 -49 45 -76 47 l-35 3 -1 -45 c0 -43 -2 -45 -32
-48 -31 -3 -32 -2 -32 36 0 21 -3 87 -6 145 l-7 106 59 0 c32 0 84 -2 114 -6z
m470 -18 c36 -19 70 -62 70 -89 0 -27 -32 -64 -67 -77 -13 -5 -53 -9 -89 -9
l-64 0 0 -45 c0 -43 -1 -45 -30 -45 -17 0 -32 6 -35 13 -2 6 -5 69 -7 140 l-3
127 98 0 c67 0 107 -5 127 -15z m-4052 -15 l42 0 0 -39 c0 -102 -92 -199 -211
-221 -43 -8 -72 -7 -128 5 -117 24 -160 57 -205 155 -34 72 -33 86 5 94 73 14
97 8 137 -36 43 -48 85 -68 143 -68 53 0 92 28 113 81 14 35 20 40 39 35 12
-3 41 -6 65 -6z m1649 -152 c-3 -8 -6 -5 -6 6 -1 11 2 17 5 13 3 -3 4 -12 1
-19z m2771 -188 c7 0 12 -12 12 -29 0 -24 -5 -31 -27 -35 -16 -4 -283 -5 -595
-4 l-566 3 -5 30 c-3 17 -3 33 -1 37 3 4 267 5 587 2 320 -3 588 -5 595 -4z
m-2815 -57 c-7 -2 -21 -2 -30 0 -10 3 -4 5 12 5 17 0 24 -2 18 -5z m-1746 -99
c170 -41 343 -177 392 -306 12 -31 5 -34 -22 -13 -16 12 -25 10 -70 -12 -28
-14 -69 -43 -92 -64 -23 -22 -50 -39 -59 -39 -10 0 -14 -4 -11 -10 3 -5 -1
-10 -9 -10 -9 0 -16 5 -16 10 0 22 -81 97 -132 123 -84 42 -165 53 -241 32
-81 -23 -135 -55 -189 -113 -61 -65 -82 -131 -75 -232 9 -139 65 -222 186
-279 48 -22 69 -26 151 -26 86 0 100 3 146 29 29 15 69 46 90 68 l39 41 -147
-6 -148 -6 0 133 c0 130 1 134 23 140 42 11 535 7 543 -5 3 -6 9 -169 12 -361
l5 -350 -142 4 -141 3 0 48 c0 26 -4 47 -10 47 -5 0 -32 -14 -60 -30 -121 -71
-226 -85 -366 -50 -177 46 -319 144 -414 288 -69 106 -95 191 -94 312 3 289
168 514 452 617 35 13 87 28 116 33 68 12 200 5 283 -16z m1239 -4 c171 -43
300 -135 394 -282 118 -181 117 -474 -2 -652 -198 -300 -556 -399 -873 -241
-180 89 -327 273 -354 445 -21 128 -3 297 40 382 34 67 107 164 151 202 72 62
249 143 348 159 74 12 221 6 296 -13z m824 -208 c0 -120 3 -334 7 -475 l6
-257 234 0 234 0 -3 -152 -3 -153 -90 -3 c-49 -2 -226 0 -392 3 l-303 7 0 624
0 624 155 0 155 0 0 -218z m975 208 c218 -10 303 -33 418 -110 100 -67 157
-131 206 -231 57 -119 74 -200 68 -329 -5 -130 -28 -193 -103 -293 -91 -121
-222 -210 -379 -259 -63 -19 -99 -22 -362 -25 l-292 -5 -5 34 c-3 18 -7 302
-8 631 l-3 597 140 0 c77 -1 221 -5 320 -10z m862 -47 c21 -32 81 -121 133
-198 52 -78 102 -153 111 -169 l16 -28 38 63 c21 35 54 91 75 124 20 33 62
103 93 156 l56 96 192 6 c106 4 195 5 197 3 6 -7 -76 -144 -181 -301 -54 -80
-139 -212 -189 -293 l-91 -147 2 -257 2 -258 -159 0 -160 0 -6 63 c-3 34 -7
141 -8 238 l-2 177 -131 193 c-72 107 -176 258 -231 337 -139 201 -154 224
-154 239 0 10 39 13 179 13 l179 0 39 -57z m-2682 -1282 c6 -30 16 -56 23 -59
6 -2 12 1 12 8 0 6 4 9 9 6 10 -6 21 26 21 62 0 13 6 22 15 22 8 0 15 5 15 12
0 6 7 3 15 -8 8 -10 15 -29 15 -41 0 -12 8 -26 17 -31 14 -8 12 -12 -16 -27
-18 -9 -54 -23 -80 -32 -59 -19 -281 -30 -307 -15 -11 7 -13 12 -6 12 10 0 13
18 12 68 -1 37 -1 70 -1 74 1 3 56 6 123 5 l123 -2 10 -54z m803 24 c2 -17 -4
-47 -13 -68 -14 -35 -18 -37 -59 -37 -28 0 -48 6 -58 18 -19 21 -58 97 -58
112 0 7 31 10 93 8 l92 -3 3 -30z m1117 23 c2 -7 9 -39 15 -70 10 -49 15 -58
33 -59 21 0 21 -1 -3 -11 -34 -14 -325 -29 -425 -22 l-81 6 7 65 c4 35 12 70
18 76 16 16 77 22 264 25 128 2 169 -1 172 -10z m-3237 -58 c7 -32 20 -66 28
-75 14 -14 14 -16 -2 -22 -25 -9 -164 -9 -199 0 -25 7 -27 10 -13 18 11 6 19
29 23 74 l7 65 72 0 72 0 12 -60z m2522 -15 c14 -65 18 -70 45 -76 17 -4 -27
-7 -97 -8 l-128 -1 0 80 0 81 82 -3 83 -3 15 -70z m1820 30 c4 3 11 -7 15 -22
5 -21 8 -24 16 -12 14 22 11 4 -7 -40 -18 -45 -25 -48 -119 -41 -52 4 -64 7
-47 13 12 5 22 14 22 22 0 7 8 27 18 44 12 22 24 31 44 31 15 0 30 5 34 12 6
9 9 9 12 0 2 -7 7 -10 12 -7z m-900 -34 c0 -11 -59 -36 -66 -28 -5 5 34 27 64
36 1 1 2 -3 2 -8z m-1259 -145 c106 -23 183 -68 274 -160 113 -114 175 -242
175 -363 0 -37 -4 -45 -25 -55 -20 -9 -25 -18 -25 -49 0 -56 -45 -187 -84
-245 -49 -72 -121 -141 -177 -170 -57 -28 -62 -36 -17 -23 52 14 63 11 37 -11
l-24 -21 35 17 c19 9 62 39 95 68 50 43 56 46 37 19 -31 -44 -79 -82 -165
-131 -133 -76 -268 -92 -431 -53 -148 36 -194 67 -334 226 -69 79 -110 193
-119 331 -8 121 9 210 58 313 72 149 206 257 371 301 88 23 226 25 319 6z
m1558 -68 c48 -46 115 -110 150 -142 50 -47 61 -63 54 -75 -12 -20 -220 -196
-250 -212 -19 -10 -30 -4 -108 62 -47 41 -113 96 -146 123 l-60 49 103 105
c57 57 117 119 133 137 17 18 32 33 34 34 3 0 43 -36 90 -81z m-2319 -70 c0
-14 -6 -30 -13 -36 -9 -8 -167 -11 -518 -10 -688 1 -757 0 -739 -13 12 -9 12
-10 -3 -5 -10 3 -67 7 -125 8 -100 1 -103 2 -37 7 l70 6 -81 8 c-98 11 -348 1
-387 -15 -33 -13 -33 -13 -42 32 l-6 35 940 4 941 4 0 -25z m1634 -3 c4 -16
20 -32 41 -42 43 -21 40 -35 -9 -46 -30 -8 -36 -13 -31 -28 9 -28 -5 -23 -49
17 l-38 36 25 22 c14 11 28 31 32 44 8 29 21 28 29 -3z m-2816 -62 c-10 -2
-26 -2 -35 0 -10 3 -2 5 17 5 19 0 27 -2 18 -5z m3270 -186 c2 -4 10 -14 19
-22 8 -8 10 -15 4 -15 -5 0 -13 5 -16 10 -3 6 -15 10 -26 10 -11 0 -22 7 -25
15 -4 8 -10 12 -15 9 -5 -3 -12 3 -15 13 -3 10 -10 26 -15 35 -5 10 -9 21 -9
24 0 8 93 -67 98 -79z m-2921 37 c15 -11 37 -37 48 -57 18 -34 19 -39 5 -64
-9 -16 -30 -37 -47 -48 -18 -11 -32 -23 -33 -28 0 -4 18 -27 40 -51 22 -24 40
-48 40 -55 0 -6 -16 -11 -38 -11 -40 0 -69 22 -107 82 -20 33 -44 42 -77 29
-20 -8 -27 -19 -32 -55 -7 -45 -8 -46 -44 -46 l-37 0 0 166 0 166 127 -4 c109
-3 130 -6 155 -24z m477 3 c32 -22 66 -74 66 -103 0 -58 -86 -104 -192 -104
l-58 0 0 -50 0 -50 -40 0 -39 0 -3 166 -3 166 121 -4 c94 -3 127 -8 148 -21z
m2234 -286 l142 -140 0 -53 c0 -59 -6 -68 -115 -154 -27 -21 -83 -70 -123
-108 -85 -81 -92 -79 -92 29 l0 70 55 29 c31 16 54 31 51 33 -2 2 -27 -7 -55
-22 l-52 -26 -82 65 c-45 35 -103 87 -130 115 -26 28 -52 51 -57 51 -25 0 -4
23 68 73 42 30 111 83 152 116 41 33 80 61 85 61 6 0 75 -63 153 -139z m380
49 c2 -34 0 -70 -3 -79 -12 -31 -25 12 -24 82 1 88 23 86 27 -3z m-1082 -158
c-13 -12 -17 8 -9 44 l8 39 3 -39 c2 -21 1 -41 -2 -44z m-1249 -73 c-3 -22 -8
-44 -12 -47 -9 -9 -1090 -16 -1181 -7 -80 7 -114 26 -114 64 0 27 -3 27 704
29 l609 2 -6 -41z m21 -243 c2 -10 -1 -23 -6 -28 -11 -11 -746 -22 -824 -12
-42 5 -48 9 -48 29 0 18 7 25 28 28 15 2 211 4 437 3 391 -1 410 -2 413 -20z
m-343 -65 c52 -9 -414 -22 -475 -13 -35 5 -18 8 80 12 197 9 352 9 395 1z
m222 3 c-3 -3 -12 -4 -19 -1 -8 3 -5 6 6 6 11 1 17 -2 13 -5z m60 0 c-3 -3
-12 -4 -19 -1 -8 3 -5 6 6 6 11 1 17 -2 13 -5z"/>
<path d="M5290 5943 c0 -52 -10 -64 -51 -61 -29 3 -34 -1 -37 -19 -2 -15 -10
-23 -23 -23 -16 0 -19 -7 -19 -40 0 -32 -4 -40 -18 -40 -15 0 -20 15 -31 93
-7 50 -14 97 -16 102 -6 17 -5 -269 1 -290 5 -18 15 -20 105 -23 l99 -2 0 170
c0 93 -2 170 -5 170 -3 0 -5 -17 -5 -37z"/>
<path d="M3624 6966 c-74 -34 -117 -77 -149 -148 -38 -83 -38 -144 -2 -215 57
-111 132 -153 273 -153 70 0 89 4 135 28 65 34 113 94 135 169 15 51 15 61 0
122 -28 114 -89 177 -201 206 -82 21 -131 19 -191 -9z m215 -110 c19 -20 5
-53 -25 -59 -18 -3 -33 3 -51 19 -32 29 -37 30 -63 2 -38 -41 -19 -67 48 -68
63 0 122 -56 122 -113 0 -36 -35 -74 -75 -81 -26 -5 -39 -14 -46 -32 -11 -30
-33 -27 -37 5 -2 15 -16 27 -43 38 -39 15 -59 49 -44 72 9 16 48 13 71 -4 26
-20 44 -19 44 3 1 16 1 16 11 0 12 -21 39 -24 39 -5 0 20 -30 43 -75 57 -94
29 -125 108 -65 165 50 48 78 55 130 33 25 -11 51 -25 59 -32z"/>
<path d="M6157 5851 c-4 -52 -7 -120 -7 -153 l0 -58 135 0 135 0 0 28 c-1 25
-2 26 -15 9 -11 -16 -28 -19 -109 -19 -52 0 -100 3 -105 7 -7 3 -11 50 -12
113 -2 154 -13 191 -22 73z"/>
<path d="M4323 6603 c26 -2 67 -2 90 0 23 2 2 3 -48 3 -49 0 -68 -1 -42 -3z"/>
<path d="M4308 6533 c12 -2 30 -2 40 0 9 3 -1 5 -23 4 -22 0 -30 -2 -17 -4z"/>
<path d="M4398 6503 c12 -2 32 -2 45 0 12 2 2 4 -23 4 -25 0 -35 -2 -22 -4z"/>
<path d="M4438 6353 c7 -3 16 -2 19 1 4 3 -2 6 -13 5 -11 0 -14 -3 -6 -6z"/>
<path d="M4368 6323 c7 -3 16 -2 19 1 4 3 -2 6 -13 5 -11 0 -14 -3 -6 -6z"/>
<path d="M4413 6323 c9 -2 25 -2 35 0 9 3 1 5 -18 5 -19 0 -27 -2 -17 -5z"/>
<path d="M4328 6143 c23 -2 59 -2 80 0 20 2 1 4 -43 4 -44 0 -61 -2 -37 -4z"/>
<path d="M4408 6073 c12 -2 30 -2 40 0 9 3 -1 5 -23 4 -22 0 -30 -2 -17 -4z"/>
<path d="M4303 6063 c9 -2 25 -2 35 0 9 3 1 5 -18 5 -19 0 -27 -2 -17 -5z"/>
<path d="M4428 6033 c6 -2 18 -2 25 0 6 3 1 5 -13 5 -14 0 -19 -2 -12 -5z"/>
<path d="M4298 6011 c12 -7 62 -4 62 5 0 2 -17 4 -37 4 -24 0 -33 -3 -25 -9z"/>
<path d="M4280 5921 c0 -9 179 -3 189 5 2 2 -39 4 -92 4 -54 0 -97 -4 -97 -9z"/>
<path d="M4277 5878 c-7 -4 32 -8 86 -8 59 0 97 4 97 10 0 12 -165 9 -183 -2z"/>
<path d="M4289 5838 c-13 -3 21 -6 75 -7 55 -1 96 2 92 7 -10 9 -134 9 -167 0z"/>
<path d="M4330 5810 l-65 -7 88 -1 c52 -1 87 2 87 8 0 11 -6 11 -110 0z"/>
<path d="M4315 5780 c-34 -6 -29 -7 30 -8 39 0 81 4 95 8 32 10 -67 10 -125 0z"/>
<path d="M4341 5751 c-36 -3 -66 -11 -68 -17 -4 -12 62 -24 133 -24 65 0 53
18 -13 23 l-58 3 63 2 c39 1 61 6 57 12 -3 6 -16 9 -28 8 -12 -1 -51 -4 -86
-7z"/>
<path d="M4702 5660 c0 -14 2 -19 5 -12 2 6 2 18 0 25 -3 6 -5 1 -5 -13z"/>
<path d="M4594 5825 c0 -60 1 -84 3 -52 2 32 2 81 0 110 -2 29 -3 3 -3 -58z"/>
<path d="M4623 5735 c0 -27 2 -38 4 -22 2 15 2 37 0 50 -2 12 -4 0 -4 -28z"/>
<path d="M6800 5976 c0 -33 1 -33 54 -40 67 -7 86 -1 86 30 0 30 -32 44 -96
44 -43 0 -44 -1 -44 -34z"/>
<path d="M7214 5997 c-3 -9 -4 -26 -2 -39 3 -21 9 -23 69 -26 55 -2 68 0 73
14 11 28 -24 54 -82 61 -41 5 -53 3 -58 -10z"/>
<path d="M3011 4874 l-1 -81 83 -6 c45 -4 108 -7 140 -7 42 0 59 -4 63 -15 10
-26 -17 -74 -68 -120 -70 -63 -157 -89 -276 -83 -109 5 -165 30 -243 108 -58
57 -81 106 -94 200 l-7 45 -130 2 -131 2 7 -56 c17 -149 100 -292 228 -395
133 -108 367 -166 493 -123 38 13 38 14 5 7 -93 -19 -311 3 -294 29 3 5 -3 6
-12 2 -12 -4 -15 -3 -10 5 4 7 18 12 32 12 17 0 24 5 24 20 0 15 7 20 29 20
16 0 31 -5 33 -11 2 -7 44 -10 116 -10 88 0 114 -3 118 -14 3 -8 13 -11 22 -8
14 5 13 2 -3 -17 -17 -19 -10 -18 52 14 40 20 79 36 87 36 20 0 46 -39 46 -67
0 -22 4 -23 73 -23 39 0 82 3 95 6 l22 6 0 272 0 271 -159 -6 c-106 -4 -165
-10 -175 -18 -8 -7 -24 -10 -36 -6 -11 4 -20 2 -20 -4 0 -6 -9 -11 -20 -11
-11 0 -20 5 -20 10 0 6 -9 10 -20 10 -20 0 -24 9 -20 44 1 10 -3 15 -8 12 -6
-3 -13 2 -15 11 -3 10 -5 -18 -6 -63z m56 -70 c-3 -3 -12 -4 -19 -1 -8 3 -5 6
6 6 11 1 17 -2 13 -5z m-314 -405 c-8 -8 -16 -8 -30 0 -16 9 -14 10 12 11 21
0 26 -3 18 -11z m732 -38 c-3 -6 -11 -11 -16 -11 -5 0 -4 6 3 14 14 16 24 13
13 -3z"/>
<path d="M4097 5226 c-149 -62 -225 -179 -215 -326 9 -120 83 -225 196 -278
50 -24 69 -27 157 -27 85 0 107 4 148 24 125 62 197 172 199 304 2 89 -21 145
-88 217 -69 74 -137 103 -248 107 -78 3 -99 0 -149 -21z"/>
<path d="M3718 4922 l-118 -3 0 -45 c0 -58 42 -185 82 -247 38 -60 145 -158
215 -198 66 -38 80 -33 18 6 -43 28 -57 45 -35 45 6 0 10 -4 10 -9 0 -5 6 -11
14 -14 9 -4 13 4 14 25 0 16 2 32 4 33 2 2 76 6 164 8 89 2 167 8 174 12 9 5
11 4 6 -3 -10 -17 10 -15 27 3 8 8 17 11 20 8 4 -3 25 2 47 11 23 9 46 13 52
10 7 -5 8 -2 3 7 -6 11 -5 12 6 2 7 -8 39 -13 76 -13 35 0 63 -4 63 -10 0 -15
57 -12 63 3 4 9 8 8 17 -3 9 -11 13 -12 17 -2 6 15 43 16 43 1 0 -5 -5 -7 -12
-3 -7 4 -8 3 -4 -4 4 -6 -2 -17 -14 -24 -11 -7 -20 -17 -20 -23 0 -5 27 17 60
50 33 33 58 65 56 72 -3 7 0 12 7 10 7 -1 11 8 9 23 -1 19 0 21 7 10 8 -11 15
-3 31 35 24 57 50 157 50 198 l0 27 -87 0 c-49 0 -104 3 -123 6 l-35 6 -18
-79 c-21 -94 -56 -153 -123 -209 -80 -66 -143 -88 -249 -87 -101 0 -161 18
-239 73 -56 38 -118 128 -135 197 -7 26 -15 59 -19 73 l-7 25 -117 -3z m1027
-322 c-3 -5 -12 -10 -18 -10 -7 0 -6 4 3 10 19 12 23 12 15 0z"/>
<path d="M4000 4382 c8 -5 26 -13 40 -16 17 -5 20 -4 10 2 -8 5 -26 13 -40 16
-17 5 -20 4 -10 -2z"/>
<path d="M4338 4343 c7 -3 16 -2 19 1 4 3 -2 6 -13 5 -11 0 -14 -3 -6 -6z"/>
<path d="M4197 4333 c18 -2 50 -2 70 0 21 2 7 4 -32 4 -38 0 -55 -2 -38 -4z"/>
<path d="M4960 4628 c0 -159 2 -288 4 -288 20 0 34 14 28 28 -5 15 -4 15 12 0
9 -10 23 -18 29 -17 8 0 8 2 1 5 -6 2 -8 18 -6 34 4 27 8 30 38 30 19 0 34 5
34 10 0 6 9 10 20 10 11 0 20 5 20 10 0 6 27 10 60 10 33 0 60 4 60 10 0 6 30
10 70 10 68 0 70 1 70 25 0 18 5 25 20 25 15 0 20 -7 20 -25 0 -22 4 -25 40
-25 33 0 40 -3 40 -20 0 -17 -7 -20 -40 -20 l-40 0 0 -40 0 -40 40 0 c41 0 49
7 28 28 -9 9 -9 12 0 12 7 0 12 9 12 20 0 17 7 20 40 20 33 0 40 3 40 20 0 14
7 20 21 20 17 0 20 5 17 23 -4 20 -1 23 19 19 16 -3 23 0 23 12 0 14 -24 16
-225 16 -212 0 -225 1 -235 19 -6 11 -10 90 -10 183 l0 163 -125 0 -125 0 0
-287z m563 -95 c-7 -2 -21 -2 -30 0 -10 3 -4 5 12 5 17 0 24 -2 18 -5z m-186
-9 c-3 -3 -12 -4 -19 -1 -8 3 -5 6 6 6 11 1 17 -2 13 -5z"/>
<path d="M5108 4343 c12 -2 30 -2 40 0 9 3 -1 5 -23 4 -22 0 -30 -2 -17 -4z"/>
<path d="M5498 4343 c7 -3 16 -2 19 1 4 3 -2 6 -13 5 -11 0 -14 -3 -6 -6z"/>
<path d="M6094 4915 c4 -181 8 -331 10 -332 2 -2 54 0 115 6 89 7 124 15 174
39 75 35 126 82 156 146 62 127 36 259 -74 371 -64 66 -117 84 -274 92 l-113
6 6 -328z"/>
<path d="M5800 4628 c0 -254 2 -288 16 -288 8 0 12 5 9 10 -3 6 4 10 17 10 17
0 20 -2 9 -9 -23 -15 59 -23 189 -19 l115 4 -137 2 c-150 2 -164 8 -118 53 25
24 37 27 131 32 265 16 309 20 309 32 0 15 45 25 111 25 42 0 49 3 49 20 0 18
7 20 60 20 53 0 60 2 60 20 0 16 7 20 34 20 41 0 54 -24 29 -53 -18 -20 -18
-20 10 -2 33 21 107 112 107 131 0 8 5 14 12 14 6 0 8 3 5 7 -4 3 0 17 8 30 9
13 12 23 9 23 -4 0 0 8 8 18 23 26 38 80 38 136 l0 51 -130 -3 -130 -3 0 -32
c0 -45 -59 -164 -104 -210 -77 -78 -195 -117 -353 -117 l-103 0 0 179 0 180
-130 3 -130 3 0 -287z m982 -10 c-8 -8 -9 -4 -5 13 4 13 8 18 11 10 2 -7 -1
-18 -6 -23z m-55 -66 c-5 -7 -12 -10 -16 -7 -3 3 1 10 8 14 9 6 10 11 2 15 -6
4 -8 12 -4 19 4 7 9 4 13 -9 4 -10 3 -25 -3 -32z m-847 -162 c0 -5 -4 -10 -10
-10 -5 0 -10 5 -10 10 0 6 5 10 10 10 6 0 10 -4 10 -10z"/>
<path d="M6548 4424 c-39 -21 -35 -28 5 -8 37 19 44 24 31 24 -5 -1 -21 -8
-36 -16z"/>
<path d="M6198 4333 c7 -3 16 -2 19 1 4 3 -2 6 -13 5 -11 0 -14 -3 -6 -6z"/>
<path d="M7348 4923 c-109 -2 -198 -6 -198 -8 0 -3 16 -30 37 -60 46 -70 52
-106 52 -332 l1 -183 124 0 125 0 1 208 c1 221 6 264 37 309 35 49 45 73 31
71 -7 -2 -102 -4 -210 -5z m132 -522 c0 -35 -3 -39 -31 -45 -17 -3 -64 -5
-103 -5 -39 1 -58 4 -41 6 16 3 34 10 38 16 6 9 10 9 14 0 7 -19 83 -17 83 1
0 8 -8 17 -17 19 -11 3 -7 5 10 6 20 1 27 6 27 21 0 11 5 20 10 20 6 0 10 -17
10 -39z"/>
<path d="M6082 4220 c0 -14 2 -19 5 -12 2 6 2 18 0 25 -3 6 -5 1 -5 -13z"/>
<path d="M4935 3935 c-126 -45 -245 -147 -290 -250 -31 -70 -65 -202 -65 -252
1 -122 55 -251 139 -333 76 -74 126 -103 226 -132 157 -44 333 -24 468 55 53
31 124 106 162 171 34 58 65 180 65 258 0 124 -77 285 -184 386 -96 91 -184
122 -346 122 -86 0 -118 -5 -175 -25z m223 -117 c-3 -42 -2 -42 42 -60 25 -9
64 -17 88 -17 l42 -1 0 -40 c0 -21 5 -51 12 -65 6 -14 9 -28 5 -31 -3 -3 -33
-8 -66 -11 -58 -6 -61 -5 -70 20 -13 33 -45 53 -97 62 -101 16 -187 -48 -199
-148 -13 -105 25 -196 100 -235 39 -20 148 -19 199 2 36 15 37 16 34 63 l-3
48 -60 -3 c-33 -2 -64 -8 -70 -13 -26 -25 -35 -8 -35 71 0 71 2 79 18 73 9 -3
25 -13 34 -21 14 -12 38 -14 122 -10 57 3 108 3 113 -1 5 -3 7 -64 5 -134 l-4
-129 -60 -28 c-33 -16 -82 -31 -110 -35 l-51 -7 7 -60 c5 -52 4 -59 -10 -54
-9 3 -33 9 -54 12 -39 6 -39 7 -42 58 l-3 51 -60 13 c-60 13 -125 52 -125 75
0 9 2 9 8 1 10 -16 69 -45 132 -65 51 -15 55 -19 63 -55 12 -59 20 -55 15 7
-5 64 -21 86 -71 100 -19 5 -61 34 -95 64 -76 70 -97 117 -90 212 9 121 63
192 175 228 66 22 68 23 68 56 0 41 9 49 58 49 l39 0 -4 -42z m-309 -498 c-6
-16 -15 -27 -20 -24 -9 5 -5 17 14 42 15 19 17 14 6 -18z"/>
<path d="M5280 3301 c-28 -21 -109 -50 -143 -52 -21 -1 -21 -1 3 -9 41 -13 98
-11 113 5 8 8 18 11 22 7 5 -4 5 1 2 11 -4 11 -1 17 7 17 8 0 16 9 19 20 3 11
4 20 4 20 -1 0 -13 -9 -27 -19z"/>
<path d="M4535 3370 c7 -118 50 -221 130 -315 83 -98 116 -124 199 -156 70
-28 97 -33 199 -37 83 -3 117 -1 117 7 0 7 -30 11 -87 12 -71 0 -83 2 -63 11
23 9 19 12 -47 27 -77 19 -218 99 -279 158 -74 73 -144 225 -144 312 0 47 -3
61 -15 61 -12 0 -14 -14 -10 -80z m123 -285 c-3 -3 -9 2 -12 12 -6 14 -5 15 5
6 7 -7 10 -15 7 -18z"/>
<path d="M5218 2873 c6 -2 18 -2 25 0 6 3 1 5 -13 5 -14 0 -19 -2 -12 -5z"/>
<path d="M3474 3589 c3 -17 6 -35 6 -40 0 -14 124 -11 138 3 37 37 -3 68 -85
68 l-65 0 6 -31z"/>
<path d="M3970 3578 l0 -38 53 0 c60 0 91 17 85 46 -3 16 -14 20 -71 24 l-67
5 0 -37z"/>
<path d="M6435 3206 c-33 -28 -76 -64 -95 -80 -19 -15 -28 -24 -20 -20 27 14
123 86 153 116 52 49 25 38 -38 -16z"/>
<path d="M3505 3180 l-340 -5 210 -9 c116 -5 316 -6 445 -2 129 3 284 6 343 6
70 0 106 4 102 10 -6 10 -102 10 -760 0z"/>
<path d="M4630 7706 c-19 -8 -50 -19 -67 -26 -49 -18 -30 -30 46 -30 64 0 118
7 241 32 l55 11 -30 13 c-40 17 -200 17 -245 0z"/>
<path d="M5888 5924 c-7 -47 2 -224 11 -224 3 0 5 51 3 113 -4 142 -6 162 -14
111z"/>
<path d="M8230 5397 c4 -41 5 -41 8 -8 2 18 0 37 -5 42 -5 5 -6 -11 -3 -34z"/>
<path d="M2165 5383 c-16 -3 -34 -9 -39 -14 -15 -14 -84 -11 -89 4 -20 55 -29
-549 -9 -628 6 -22 10 -32 11 -23 1 14 11 16 64 15 34 -1 65 -6 69 -12 5 -6 8
-4 8 5 0 12 2 13 9 1 5 -8 8 80 7 210 0 123 3 275 7 337 4 61 4 111 0 111 -4
-1 -21 -4 -38 -6z"/>
<path d="M8100 5380 c-25 -4 -48 -6 -51 -4 -14 8 -16 -26 -7 -121 5 -55 7
-190 4 -300 -4 -127 -2 -194 4 -184 16 27 149 9 151 -20 1 -9 5 0 11 19 12 45
14 534 2 580 -11 39 -29 44 -114 30z"/>
<path d="M8254 5070 c0 -118 2 -167 3 -107 2 59 2 155 0 215 -1 59 -3 10 -3
-108z"/>
<path d="M1984 4955 c0 -99 2 -138 3 -87 2 51 2 132 0 180 -1 48 -3 6 -3 -93z"/>
<path d="M2222 3962 c2 -4 12 -30 22 -57 69 -176 291 -529 454 -723 72 -86
262 -269 337 -327 39 -29 102 -78 140 -109 150 -121 266 -192 510 -314 182
-91 315 -148 430 -186 195 -63 567 -129 801 -141 141 -7 124 0 -51 20 -158 19
-435 72 -570 111 -213 60 -386 133 -655 275 -165 86 -208 113 -330 204 -52 39
-116 86 -142 104 -27 17 -48 37 -48 43 0 6 10 3 23 -8 12 -10 16 -12 10 -4
-15 17 -17 34 -3 25 6 -3 10 -1 10 5 0 6 -15 17 -32 25 -18 8 -27 14 -20 15 7
0 10 4 7 10 -3 6 1 7 9 4 11 -4 16 0 16 10 0 9 -4 16 -10 16 -13 0 -13 37 1
42 6 2 1 15 -11 31 -12 15 -26 24 -32 21 -6 -4 -8 -3 -5 3 8 13 -96 103 -119
103 -23 0 -97 22 -108 32 -6 4 -19 8 -30 8 -12 0 -34 7 -50 15 -35 18 -39 19
-30 3 9 -16 -33 18 -65 52 -40 43 -201 260 -274 370 -38 58 -94 156 -123 218
-30 61 -57 112 -60 112 -3 0 -4 -3 -2 -8z"/>
<path d="M7887 3738 c-133 -223 -299 -438 -459 -593 -56 -55 -89 -85 -73 -67
28 31 28 32 9 47 -10 8 -23 15 -28 15 -6 0 -22 11 -36 25 l-26 25 -82 -83
c-45 -46 -78 -88 -74 -92 4 -5 2 -5 -5 -1 -6 3 -14 2 -18 -4 -3 -5 -2 -10 4
-10 5 0 13 -9 16 -20 3 -11 15 -20 26 -20 10 0 19 -4 19 -10 0 -12 41 -13 56
-2 5 4 -9 -12 -33 -36 -24 -24 -48 -40 -53 -37 -6 4 -9 1 -8 -7 2 -7 -5 -12
-14 -12 -10 1 -16 -2 -13 -6 10 -16 -91 -91 -370 -272 -162 -106 -371 -203
-624 -290 -179 -61 -458 -123 -759 -169 -119 -19 -74 -22 59 -4 291 37 595
103 767 166 146 53 319 133 497 230 94 50 188 101 210 112 22 12 61 36 86 54
26 18 49 33 53 33 47 0 413 353 555 535 107 138 279 394 341 508 23 42 40 77
37 77 -2 0 -29 -42 -60 -92z m-617 -742 c0 -2 -8 -10 -17 -17 -16 -13 -17 -12
-4 4 13 16 21 21 21 13z"/>
<path d="M7574 3198 l-19 -23 23 19 c12 11 22 21 22 23 0 8 -8 2 -26 -19z"/>
<path d="M7524 3138 l-29 -33 33 29 c17 17 32 31 32 33 0 8 -8 1 -36 -29z"/>
<path d="M2757 3075 c125 -141 275 -280 368 -342 98 -65 126 -82 110 -66 -33
32 -160 137 -215 178 -36 27 -126 108 -200 180 -110 107 -121 116 -63 50z"/>
<path d="M7225 2843 c-49 -47 -67 -67 -40 -45 48 39 144 132 135 132 -3 -1
-45 -40 -95 -87z"/>
<path d="M7090 2729 c-22 -18 -22 -19 -3 -10 12 6 25 16 28 21 9 15 3 12 -25
-11z"/>
<path d="M7009 2669 l-24 -20 28 17 c15 9 27 18 27 20 0 8 -8 4 -31 -17z"/>
<path d="M4331 2604 c0 -11 3 -14 6 -6 3 7 2 16 -1 19 -3 4 -6 -2 -5 -13z"/>
</g>
</svg>
